HIERARCHY
ROOT Hips
{
  OFFSET 0 0 0
  CHANNELS 6 Xposition Yposition Zposition Zrotation Yrotation Xrotation
  JOINT LeftThigh
  {
    OFFSET 8.409438 0 -5.917753
    CHANNELS 3 Zrotation Yrotation Xrotation
    JOINT LeftLeg
    {
      OFFSET 0 0 -42.358652
      CHANNELS 3 Zrotation Yrotation Xrotation
      JOINT LeftFoot
      {
        OFFSET 0 0 -39.357303
        CHANNELS 3 Zrotation Yrotation Xrotation
      }
    }
  }
  JOINT RightThigh
  {
    OFFSET -8.409438 0 -5.917753
    CHANNELS 3 Zrotation Yrotation Xrotation
    JOINT RightLeg
    {
      OFFSET 0 0 -42.358652
      CHANNELS 3 Zrotation Yrotation Xrotation
      JOINT RightFoot
      {
        OFFSET 0 0 -39.357303
        CHANNELS 3 Zrotation Yrotation Xrotation
      }
    }
  }
  JOINT SpineLow
  {
    OFFSET 0 0 4.719101
    CHANNELS 3 Zrotation Yrotation Xrotation
    JOINT SpineMid
    {
      OFFSET 0 0 12.899191
      CHANNELS 3 Zrotation Yrotation Xrotation
      JOINT Chest
      {
        OFFSET 0 0 12.899191
        CHANNELS 3 Zrotation Yrotation Xrotation
        JOINT LeftShoulder
        {
          OFFSET 7.550562 1.41573 9.438202
          CHANNELS 3 Zrotation Yrotation Xrotation
          JOINT LeftArm
          {
            OFFSET 9.155056 0 4.247191
            CHANNELS 3 Zrotation Yrotation Xrotation
            JOINT LeftForearm
            {
              OFFSET 0 0 25.771955
              CHANNELS 3 Zrotation Yrotation Xrotation
              JOINT LeftHand
              {
                OFFSET 0 0 25.197169
                CHANNELS 3 Zrotation Yrotation Xrotation
              }
            }
          }
        }
        JOINT RightShoulder
        {
          OFFSET -7.550562 1.41573 9.438202
          CHANNELS 3 Zrotation Yrotation Xrotation
          JOINT RightArm
          {
            OFFSET -9.155056 0 4.247191
            CHANNELS 3 Zrotation Yrotation Xrotation
            JOINT RightForearm
            {
              OFFSET 0 0 -25.771955
              CHANNELS 3 Zrotation Yrotation Xrotation
              JOINT RightHand
              {
                OFFSET 0 0 -25.197169
                CHANNELS 3 Zrotation Yrotation Xrotation
              }
            }
          }
        }
        JOINT Neck
        {
          OFFSET 0 0 15.101124
          CHANNELS 3 Zrotation Yrotation Xrotation
          JOINT Head
          {
            OFFSET 0 0 11.325843
            CHANNELS 3 Zrotation Yrotation Xrotation
            End Site
            {
              OFFSET 0 0 14.157303
            }
          }
        }
      }
    }
  }
}
MOTION
Frames: 7
Frame Time: 0.0
0.0  89.887642  0.0  4.162734  20.986414  -93.837618  -8.798603  -9.931065  -8.487491  -10.640961  10.375566  25.59643  -0.612597  1.209247  0.798331  -29.841053  17.249011  -1.430242  -24.080825  11.328019  10.016398  6.438547  1.871414  -1.536691  0.430339  -0.430894  0.730495  1.163266  -1.190638  1.989192  1.163266  -1.190638  1.989192  -17.576414  17.308828  -9.57512  136.389062  61.683464  -145.57554  20.973974  13.75856  8.554621  118.316641  -13.901509  9.746423  -6.563336  -1.367592  6.358823  110.479541  30.055149  13.235431  -1.26452  -18.197658  -79.113047  57.90035  -2.21354  -21.806338  -27.379945  3.221715  1.106587  -20.535423  2.372337  0.976693  
0.0  89.887642  0.0  4.053478  22.512381  -93.886598  -8.761211  -10.010814  -8.429046  -11.087997  10.220036  25.207259  -0.622187  1.176475  0.682669  -29.79384  16.847048  -1.159153  -24.073164  12.22397  10.478246  6.463075  2.243063  -1.662146  0.516261  -0.46472  0.774018  1.396271  -1.286573  2.105913  1.396271  -1.286573  2.105913  -17.281696  16.953274  -9.917623  137.974552  61.552316  -143.242177  20.777557  12.809784  9.000281  118.677153  -14.631058  9.843057  -6.164579  -1.178569  6.382049  110.083914  30.0829  13.071232  -1.58961  -18.636089  -79.871602  57.615927  -3.207896  -21.456376  -28.66448  3.053485  1.043501  -21.49852  2.247007  0.928393  
0.0  89.887642  0.0  3.991558  23.659623  -93.937225  -8.975721  -10.203861  -8.463061  -10.960205  10.192779  25.065689  -0.85447  1.111975  0.53296  -30.216047  16.673855  -1.127787  -23.512116  12.782482  10.900595  6.672015  2.594535  -1.802699  0.639864  -0.504732  0.813225  1.732044  -1.400859  2.209641  1.732044  -1.400859  2.209641  -16.930166  16.638774  -10.206488  138.391038  61.464972  -141.832444  20.04483  11.857287  9.345103  118.320041  -15.109702  8.870575  -5.919781  -0.903499  6.51947  109.315621  30.100843  12.652997  -2.613824  -19.147073  -79.63236  56.765011  -3.784746  -22.079134  -29.845656  2.925612  1.007198  -22.384231  2.151075  0.900976  
0.0  89.887642  0.0  3.938012  24.396264  -93.921037  -9.169231  -10.428974  -8.54369  -10.547137  10.183224  25.066948  -1.035937  1.046193  0.481346  -30.778235  16.646502  -1.205973  -22.916915  13.022775  11.281738  6.92668  2.737901  -1.884801  0.80012  -0.547827  0.847723  2.16789  -1.525077  2.299123  2.16789  -1.525077  2.299124  -16.521106  16.302174  -10.502065  138.045492  61.16719  -141.034782  19.185926  10.846802  9.590734  117.617164  -15.416362  7.209786  -5.808286  -0.594163  6.684399  108.334794  30.046554  12.105697  -2.106073  -19.799181  -80.670568  55.564176  -4.322066  -21.012367  -30.94238  2.791975  0.938906  -23.206508  2.052651  0.848299  
0.0  89.887642  0.0  3.865101  24.679842  -93.95101  -9.158651  -10.603231  -8.458808  -10.287406  10.132362  25.023736  -1.25588  1.000567  0.396284  -31.146361  16.704262  -1.264781  -22.383794  12.972022  11.674625  7.039603  2.959356  -1.945548  0.996565  -0.597195  0.883653  2.702298  -1.668216  2.390763  2.702298  -1.668216  2.390763  -16.097176  15.955982  -10.752433  137.056208  60.711468  -140.854825  18.127336  9.711464  9.752777  116.986231  -15.739202  5.628513  -5.785419  -0.320539  6.908648  107.339783  29.901645  11.573401  -2.514805  -20.535259  -80.676332  54.951253  -4.847805  -21.03922  -31.906219  2.68265  0.872605  -23.929142  1.972773  0.79729  
0.0  89.887642  0.0  3.732114  24.556355  -94.115497  -9.070641  -10.764218  -8.135204  -10.215936  10.094387  24.923171  -1.23941  1.004599  0.404104  -31.231736  16.670389  -1.186764  -22.065307  12.896482  11.921907  7.126348  3.061819  -1.953528  1.223708  -0.647786  0.939669  3.319901  -1.817375  2.535545  3.319901  -1.817375  2.535545  -15.79285  15.453416  -11.010468  135.844179  60.081545  -141.182766  17.107348  8.401701  9.960453  116.593951  -16.087022  4.619389  -5.830325  -0.220887  7.11078  106.432163  29.695904  11.178579  -1.731744  -21.291255  -81.723927  54.298479  -5.303799  -19.878166  -32.740179  2.557334  0.803539  -24.554432  1.881322  0.742405  
0.0  89.887642  0.0  3.459722  24.041524  -94.307232  -9.024265  -11.034743  -7.749258  -10.130692  10.088398  24.849734  -1.177387  1.02123  0.388579  -31.126495  16.452016  -1.143591  -21.946603  12.801167  12.084676  7.457317  3.216658  -1.931219  1.471448  -0.724379  0.984869  3.99295  -2.038718  2.647594  3.99295  -2.038718  2.647594  -15.525692  14.884747  -11.217216  134.740777  59.389148  -141.682924  16.229302  7.101793  10.406894  116.496403  -16.180304  4.455454  -5.873553  -0.243736  7.317759  105.63525  29.442124  11.094243  -0.878015  -22.136087  -82.709676  53.974173  -5.640702  -18.983997  -33.407989  2.4983  0.713675  -25.054943  1.841206  0.674457  
